Simulation
nRows=35
nColumns=15
endheader
time  TH_x TH_y TH_z SC_y  SC_z  SC_x  AC_y  AC_z  AC_x  GH_y  GH_z  GH_yy  EL_x  PS_y
2.0666666666666664  0.000000  0.000000  0.000000  -27.786676901662048  13.595344547738238  26.657174713741057  65.1968093652426  10.333967707964437  18.15104224659334  44.41602022176609  70.65944283274996  -19.49582404280283  16.227138901229132  120.000000
2.1071895424836597  0.000000  0.000000  0.000000  -27.820084649834445  13.600524616473866  26.71658570374747  65.14314042221274  10.341750534503829  18.156375233685228  44.46707880147524  70.63631071780114  -19.522065720858887  16.26476336343034  120.000000
2.1477124183006535  0.000000  0.000000  0.000000  -27.85058369212531  13.594621003734952  26.762525241289868  65.0590423795765  10.367399911296681  18.14594330903433  44.51567499391929  70.59322511546671  -19.61734128161126  16.305739390850565  120.000000
2.188235294117647  0.000000  0.000000  0.000000  -27.86687876368967  13.572141786099092  26.783769689427828  64.9504478059813  10.40268215586471  18.104639191650108  44.55138107544466  70.53137496746787  -19.803142091305627  16.332233666428632  120.000000
2.22875816993464  0.000000  0.000000  0.000000  -27.85815674674097  13.528092681357432  26.77058971102626  64.82301737731133  10.438922242365033  18.017508985791995  44.56446656041628  70.45163726242066  -20.099466430902233  16.32742953911022  120.000000
2.269281045751634  0.000000  0.000000  0.000000  -27.81532595692723  13.45831302896152  26.715901511499382  64.68133529023054  10.468115188543669  17.871246669782227  44.54745184719814  70.35394591742792  -20.523228474478277  16.277525404423663  120.000000
2.3098039215686272  0.000000  0.000000  0.000000  -27.732278531732796  13.35966967153793  26.616138646158596  64.52789023964235  10.483954815272652  17.65550414162919  44.49634226580836  70.23636728517019  -21.086461848508396  16.174148750631776  120.000000
2.3503267973856206  0.000000  0.000000  0.000000  -27.606600837662516  13.230123720768509  26.471502497109416  64.36236327222836  10.482612343722849  17.363569219476762  44.41127243298447  70.09447087715168  -21.7952428965958  16.015951975476256  120.000000
2.390849673202614  0.000000  0.000000  0.000000  -27.439284704114357  13.06874838171082  26.28538458573893  64.181584619198  10.462944494091154  16.99260668951223  44.296415498143574  69.9212714035822  -22.649787463979283  15.808309957467664  120.000000
2.4313725490196076  0.000000  0.000000  0.000000  -27.23358705974289  12.875705272252564  26.063181885213158  63.98036489814761  10.426175258344873  16.54330435291449  44.15917775433886  69.707949046957  -23.64595535489465  15.561197316262694  120.000000
2.471895424836601  0.000000  0.000000  0.000000  -26.99388842044573  12.652098556729104  25.811017668748754  63.75265679091997  10.375318845920187  16.01918265273592  44.00915503237469  69.44499562749276  -24.776613659578928  15.286772123980102  120.000000
2.5124183006535943  0.000000  0.000000  0.000000  -26.72505331843222  12.399906947617396  25.534799293331666  63.49270320128854  10.314623045019434  15.425816237171484  43.857017889626015  69.12342015176264  -26.032214407281703  14.997887517637784  120.000000
2.552941176470588  0.000000  0.000000  0.000000  -26.432159561589703  12.121891777981329  25.239655231373984  63.19626456606975  10.249079918225386  14.770354153561257  43.713533149681645  68.73596836271628  -27.400750441708624  14.707049426070654  120.000000
2.5934640522875814  0.000000  0.000000  0.000000  -26.1206018564262  11.821338255310158  24.929683456278546  62.862037244460176  10.183977075156362  14.061311311376825  43.5887061310788  68.27848592172901  -28.866744959665752  14.425333734632682  120.000000
2.6339869281045747  0.000000  0.000000  0.000000  -25.796342914536968  11.502024623842185  24.60791913769783  62.4926584843428  10.124312592698324  13.308771292670844  43.49117257188071  67.7511679487294  -30.40960825635929  14.161464387365218  120.000000
2.6745098039215685  0.000000  0.000000  0.000000  -25.465974878446495  11.168296391701903  24.276528206794335  62.09535699123781  10.074205542854314  12.524718409434827  43.4276857217782  67.1594117865259  -32.002849018568845  13.920986342252283  120.000000
2.7150326797385618  0.000000  0.000000  0.000000  -25.136659587642903  10.825001344069253  23.93714231436625  61.68178265525478  10.036519394359729  11.723167335666252  43.40290236054977  66.51394976101399  -33.61406002663495  13.706175634768705  120.000000
2.755555555555555  0.000000  0.000000  0.000000  -24.816068175032296  10.477511659663861  23.591218458790124  61.26680935091389  10.012660766753692  10.919946856958116  43.41927310481862  65.83010608438015  -35.20564958916997  13.517212934743675  120.000000
2.796078431372549  0.000000  0.000000  0.000000  -24.512223492899366  10.131519887398731  23.240329701220414  60.86693435765993  10.002615319430285  10.132044131357588  43.477185207390846  65.12641732234847  -36.73672946987122  13.353463254504309  120.000000
2.836601307189542  0.000000  0.000000  0.000000  -24.232743306659405  9.792902317646512  22.886436765279463  60.49845323850345  10.005066169294425  9.376648119088122  43.57500861836499  64.42281110595215  -38.16569146302038  13.21402634685287  120.000000
2.8771241830065355  0.000000  0.000000  0.000000  -23.983995995277255  9.467588242613553  22.53216003680662  60.17570126940105  10.017733745455073  8.670028685208122  43.70913975534758  63.73856127078873  -39.45354508993987  13.097826249899189  120.000000
2.917647058823529  0.000000  0.000000  0.000000  -23.77080005248486  9.161051174043891  22.18078760994852  59.909584813926394  10.038017969798313  8.0263813130883  43.87427974248657  63.090608754705556  -40.56813094446294  13.003759531858538  120.000000
2.9581699346405226  0.000000  0.000000  0.000000  -23.59597123368852  8.878110459560252  21.836096160128815  59.70606646521526  10.063569136464578  7.456858495405431  44.06380379980934  62.492382346124664  -41.488360956674406  12.930814757673225  120.000000
2.998692810457516  0.000000  0.000000  0.000000  -23.459799930812423  8.623027581285513  21.502230032004196  59.56517650657649  10.092689973017778  6.968950431804242  44.270151253235014  61.95305717139209  -42.2072797349332  12.878094321729026  120.000000
3.039215686274509  0.000000  0.000000  0.000000  -23.36017296199407  8.399467580710807  21.18371806790302  59.48126434282553  10.124586908522902  6.566257261075875  44.4854085096885  61.47743957855757  -42.73243692089346  12.844754649177723  120.000000
3.079738562091503  0.000000  0.000000  0.000000  -23.29309667725972  8.210507599375322  20.885508101484458  59.44415591377301  10.159372031427525  6.248806428165789  44.701879823696174  61.06643042724726  -43.083418586878835  12.829839362719861  120.000000
3.1202614379084963  0.000000  0.000000  0.000000  -23.253314866996554  8.058526384362693  20.612961142031285  59.44084299452397  10.197898232855374  6.0136760125712385  44.91247404370201  60.71775279816618  -43.28784351348282  12.8321989132848  120.000000
3.1607843137254896  0.000000  0.000000  0.000000  -23.234941107766335  7.944906790203225  20.371740923754267  59.45735117213067  10.241395886615843  5.8555831557181275  45.11101531056716  60.42686077725254  -43.37757084008579  12.85050119694728  120.000000
3.2013071895424834  0.000000  0.000000  0.000000  -23.23202975949615  7.869667534106109  20.167460759093576  59.48052846914576  10.2910179726917  5.76737410640167  45.292402647625906  60.18783770235068  -43.38540316859668  12.883189690863563  120.000000
3.2418300653594767  0.000000  0.000000  0.000000  -23.2391096753864  7.831094787705472  20.005011201374504  59.499458436272626  10.347379591946103  5.7403287696545275  45.45267626526633  59.99424553983388  -43.34201203055606  12.928446839937306  120.000000
3.28235294117647  0.000000  0.000000  0.000000  -23.2516917905496  7.825509244944786  19.887730081852574  59.506495368606  10.410153993685473  5.764348702080468  45.58898410101643  59.83985501078978  -43.27360742517927  12.984164642105744  120.000000
3.322875816993464  0.000000  0.000000  0.000000  -23.266617333860328  7.8472137931873425  19.816642595539246  59.49775276382035  10.477917499796575  5.828134490631541  45.69953978624055  59.719192274595095  -43.200469790137916  13.047836601224004  120.000000
3.363398692810457  0.000000  0.000000  0.000000  -23.28215535160969  7.888663350520184  19.790088087704177  59.47299987983947  10.548412820403083  5.919428434901261  45.78360343318035  59.62765652217949  -43.13693022266672  13.11659064085162  120.000000
3.4039215686274504  0.000000  0.000000  0.000000  -23.29786790219907  7.94083100282094  19.803832058390057  59.43502926974272  10.619066953906835  6.025343931317815  45.841500927091566  59.561329454821326  -43.09252119481339  13.187311495984487  120.000000
3.444444444444444  0.000000  0.000000  0.000000  -23.314379481465178  7.9937946390640695  19.851590981547332  59.38875510255699  10.687539280063485  6.132743541933129  45.87470467427634  59.51663401772066  -43.07369791964277  13.256786226787156  120.000000
